<mxfile host="app.diagrams.net" modified="2021-10-24T07:44:40.587Z" agent="5.0 (Macintosh; Intel Mac OS X 10_15_7) AppleWebKit/605.1.15 (KHTML, like Gecko) Version/15.0 Safari/605.1.15" etag="xmNH-iBlgcuXAbXRj6D9" version="15.5.8" type="github">
  <diagram id="lmW3iGvqOvk98X2ZJBwQ" name="Page-1">
    <mxGraphModel dx="786" dy="512" grid="1" gridSize="10" guides="1" tooltips="1" connect="1" arrows="1" fold="1" page="1" pageScale="1" pageWidth="827" pageHeight="1169" math="0" shadow="0">
      <root>
        <mxCell id="0" />
        <mxCell id="1" parent="0" />
        <mxCell id="jbuwqRqmrLbr60fQhBE4-2" value="" style="shape=partialRectangle;whiteSpace=wrap;html=1;bottom=1;right=1;left=1;top=0;fillColor=none;routingCenterX=-0.5;" vertex="1" parent="1">
          <mxGeometry x="220" y="140" width="360" height="220" as="geometry" />
        </mxCell>
        <mxCell id="jbuwqRqmrLbr60fQhBE4-10" value="ECU_ABS" style="endArrow=none;html=1;rounded=0;exitX=0;exitY=0;exitDx=0;exitDy=0;entryX=1;entryY=0;entryDx=0;entryDy=0;" edge="1" parent="1" source="jbuwqRqmrLbr60fQhBE4-2" target="jbuwqRqmrLbr60fQhBE4-2">
          <mxGeometry width="50" height="50" relative="1" as="geometry">
            <mxPoint x="240" y="120" as="sourcePoint" />
            <mxPoint x="290" y="70" as="targetPoint" />
          </mxGeometry>
        </mxCell>
        <mxCell id="jbuwqRqmrLbr60fQhBE4-11" value="&lt;blockquote style=&quot;margin: 0 0 0 40px ; border: none ; padding: 0px&quot;&gt;Point : X&lt;br&gt;Event : OperationInvokedEvent&lt;/blockquote&gt;" style="shape=partialRectangle;whiteSpace=wrap;html=1;bottom=1;right=1;left=1;top=0;fillColor=none;routingCenterX=-0.5;align=left;" vertex="1" parent="1">
          <mxGeometry x="250" y="170" width="300" height="160" as="geometry" />
        </mxCell>
        <mxCell id="jbuwqRqmrLbr60fQhBE4-12" value="RE_ECU_ABS_Server" style="endArrow=none;html=1;rounded=0;exitX=0;exitY=0;exitDx=0;exitDy=0;entryX=1;entryY=0;entryDx=0;entryDy=0;" edge="1" parent="1" source="jbuwqRqmrLbr60fQhBE4-11" target="jbuwqRqmrLbr60fQhBE4-11">
          <mxGeometry width="50" height="50" relative="1" as="geometry">
            <mxPoint x="270" y="150" as="sourcePoint" />
            <mxPoint x="320" y="100" as="targetPoint" />
          </mxGeometry>
        </mxCell>
      </root>
    </mxGraphModel>
  </diagram>
</mxfile>
